<svg version="1.1" id="Layer_1" xmlns="http://www.w3.org/2000/svg" xmlns:xlink="http://www.w3.org/1999/xlink" x="0px" y="0px"
	 width="100%" viewBox="0 0 500 500" enable-background="new 0 0 500 500" xml:space="preserve">
<path fill="#010000" opacity="1.000000" stroke="none" 
	d="
M328.000000,501.000000 
	C218.666687,501.000000 109.833382,501.000000 1.000058,501.000000 
	C1.000039,334.333405 1.000039,167.666794 1.000019,1.000148 
	C167.666565,1.000099 334.333130,1.000099 500.999756,1.000049 
	C500.999847,167.666519 500.999847,334.333038 500.999939,500.999786 
	C443.500000,501.000000 386.000000,501.000000 328.000000,501.000000 
M341.017853,335.037872 
	C340.049988,335.006561 339.082153,334.975250 337.981934,334.222717 
	C301.388672,249.666275 264.772552,165.119705 228.288437,80.516182 
	C226.874557,77.237541 224.992859,76.686440 221.853088,76.694221 
	C186.522583,76.781792 151.191772,76.745804 115.861046,76.741959 
	C96.029228,76.739799 76.197021,76.799210 56.365952,76.676155 
	C52.625851,76.652946 50.872314,77.436440 51.357658,81.717079 
	C51.956478,86.998642 51.819603,92.362190 52.034046,97.688965 
	C56.313011,203.979691 55.929722,310.262787 51.384708,416.533508 
	C51.209511,420.629883 52.089874,421.973328 56.428902,421.953918 
	C93.925941,421.786346 131.424026,421.856445 168.921814,421.855743 
	C170.495743,421.855713 172.069656,421.855774 173.802750,421.855774 
	C170.940536,336.076141 168.105576,251.113708 165.270630,166.151276 
	C167.466965,168.247238 168.715225,170.317841 169.687805,172.510712 
	C205.893066,254.141541 242.095596,335.773651 278.176331,417.459534 
	C279.686859,420.879364 281.446442,421.962433 285.177338,421.952637 
	C338.507141,421.812592 391.837463,421.857574 445.167633,421.857971 
	C446.915161,421.857971 448.662689,421.858002 450.611237,421.858002 
	C446.429413,306.529083 446.374176,191.973206 450.601776,77.079102 
	C411.619324,77.079102 373.056244,77.079102 334.139069,77.079102 
	C334.139069,78.814369 334.096985,80.445335 334.145264,82.073608 
	C335.093506,114.050224 336.047546,146.026672 337.009857,178.002884 
	C338.583710,230.298599 340.164368,282.594116 341.017853,335.037872 
z"/>
<path fill="#C8C5C0" opacity="1.000000" stroke="none" 
	d="
M341.742157,334.889709 
	C340.164368,282.594116 338.583710,230.298599 337.009857,178.002884 
	C336.047546,146.026672 335.093506,114.050224 334.145264,82.073608 
	C334.096985,80.445335 334.139069,78.814369 334.139069,77.079102 
	C373.056244,77.079102 411.619324,77.079102 450.601776,77.079102 
	C446.374176,191.973206 446.429413,306.529083 450.611237,421.858002 
	C448.662689,421.858002 446.915161,421.857971 445.167633,421.857971 
	C391.837463,421.857574 338.507141,421.812592 285.177338,421.952637 
	C281.446442,421.962433 279.686859,420.879364 278.176331,417.459534 
	C242.095596,335.773651 205.893066,254.141541 169.687805,172.510712 
	C168.715225,170.317841 167.466965,168.247238 165.270630,166.151276 
	C168.105576,251.113708 170.940536,336.076141 173.802750,421.855774 
	C172.069656,421.855774 170.495743,421.855713 168.921814,421.855743 
	C131.424026,421.856445 93.925941,421.786346 56.428902,421.953918 
	C52.089874,421.973328 51.209511,420.629883 51.384708,416.533508 
	C55.929722,310.262787 56.313011,203.979691 52.034046,97.688965 
	C51.819603,92.362190 51.956478,86.998642 51.357658,81.717079 
	C50.872314,77.436440 52.625851,76.652946 56.365952,76.676155 
	C76.197021,76.799210 96.029228,76.739799 115.861046,76.741959 
	C151.191772,76.745804 186.522583,76.781792 221.853088,76.694221 
	C224.992859,76.686440 226.874557,77.237541 228.288437,80.516182 
	C264.772552,165.119705 301.388672,249.666275 338.034698,334.941406 
	C339.210175,337.743866 340.332916,339.827667 341.455627,341.911438 
	C341.702332,341.814819 341.949036,341.718201 342.195740,341.621582 
	C342.044556,339.377625 341.893372,337.133667 341.742157,334.889709 
z"/>
<path fill="#44423D" opacity="1.000000" stroke="none" 
	d="
M341.380005,334.963806 
	C341.893372,337.133667 342.044556,339.377625 342.195740,341.621582 
	C341.949036,341.718201 341.702332,341.814819 341.455627,341.911438 
	C340.332916,339.827667 339.210175,337.743866 338.100891,335.302032 
	C339.082153,334.975250 340.049988,335.006561 341.380005,334.963806 
z"/>
</svg>